<svg xmlns="http://www.w3.org/2000/svg" width="783" height="587" viewBox="0 0 783 587">
    <path d="M 570,339 L 569,340 L 569,341 L 562,348 L 562,349 L 557,354 L 557,355 L 551,361 L 551,362 L 546,367 L 546,368 L 541,373 L 541,374 L 537,378 L 537,379 L 533,383 L 533,384 L 530,387 L 530,388 L 526,392 L 526,393 L 523,396 L 523,397 L 519,401 L 519,402 L 516,405 L 516,406 L 513,409 L 513,410 L 511,412 L 511,413 L 508,416 L 508,417 L 505,420 L 505,421 L 503,423 L 503,424 L 500,427 L 500,428 L 498,430 L 498,431 L 496,433 L 496,434 L 493,437 L 493,438 L 491,440 L 491,441 L 489,443 L 489,444 L 487,446 L 487,447 L 485,449 L 485,450 L 483,452 L 483,453 L 481,455 L 481,456 L 479,458 L 479,459 L 477,461 L 477,462 L 476,463 L 476,464 L 474,466 L 474,467 L 472,469 L 472,470 L 470,472 L 470,473 L 469,474 L 469,475 L 467,477 L 467,478 L 465,480 L 465,481 L 464,482 L 464,483 L 462,485 L 462,486 L 461,487 L 461,488 L 459,490 L 459,491 L 458,492 L 458,493 L 456,495 L 456,496 L 454,498 L 454,499 L 453,500 L 453,501 L 451,503 L 451,504 L 450,505 L 450,506 L 451,506 L 452,505 L 453,505 L 455,503 L 456,503 L 457,502 L 458,502 L 460,500 L 461,500 L 462,499 L 463,499 L 465,497 L 466,497 L 468,495 L 469,495 L 471,493 L 472,493 L 475,490 L 476,490 L 479,487 L 480,487 L 483,484 L 484,484 L 488,480 L 489,480 L 496,473 L 497,473 L 511,459 L 511,458 L 518,451 L 518,450 L 523,445 L 523,444 L 526,441 L 526,440 L 529,437 L 529,436 L 531,434 L 531,433 L 534,430 L 534,429 L 536,427 L 536,426 L 537,425 L 537,424 L 539,422 L 539,421 L 540,420 L 540,419 L 542,417 L 542,416 L 543,415 L 543,414 L 544,413 L 544,412 L 545,411 L 545,410 L 546,409 L 546,408 L 547,407 L 547,406 L 548,405 L 548,404 L 549,403 L 549,402 L 550,401 L 550,400 L 551,399 L 551,398 L 552,397 L 552,396 L 553,395 L 553,394 L 554,393 L 554,391 L 555,390 L 555,389 L 556,388 L 556,387 L 557,386 L 557,385 L 558,384 L 558,382 L 559,381 L 559,380 L 560,379 L 560,377 L 561,376 L 561,374 L 562,373 L 562,372 L 563,371 L 563,368 L 564,367 L 564,365 L 565,364 L 565,362 L 566,361 L 566,358 L 567,357 L 567,354 L 568,353 L 568,350 L 569,349 L 569,345 L 570,344 L 570,340 L 571,339 Z" fill="black"/>
    <path d="M 616,292 L 611,297 L 610,297 L 599,308 L 599,309 L 593,315 L 593,319 L 592,320 L 592,327 L 593,326 L 593,325 L 595,323 L 595,322 L 597,320 L 597,319 L 599,317 L 599,316 L 601,314 L 601,313 L 603,311 L 603,310 L 606,307 L 606,306 L 608,304 L 608,303 L 611,300 L 611,299 L 613,297 L 613,296 L 616,293 Z" fill="black"/>
    <path d="M 474,263 L 467,270 L 467,271 L 460,278 L 460,279 L 454,285 L 454,286 L 449,291 L 449,292 L 445,296 L 445,297 L 440,302 L 440,303 L 436,307 L 436,308 L 432,312 L 432,313 L 429,316 L 429,317 L 425,321 L 425,322 L 422,325 L 422,326 L 418,330 L 418,331 L 415,334 L 415,335 L 411,339 L 411,340 L 408,343 L 408,344 L 405,347 L 405,348 L 402,351 L 402,352 L 398,356 L 398,357 L 395,360 L 395,361 L 392,364 L 392,365 L 388,369 L 388,370 L 385,373 L 385,374 L 382,377 L 382,378 L 378,382 L 378,383 L 375,386 L 375,387 L 371,391 L 371,392 L 368,395 L 368,396 L 364,400 L 364,401 L 360,405 L 360,406 L 356,410 L 356,411 L 352,415 L 352,416 L 347,421 L 347,422 L 343,426 L 343,427 L 337,433 L 337,434 L 332,439 L 332,440 L 325,447 L 325,448 L 317,456 L 317,457 L 306,468 L 306,469 L 282,493 L 281,493 L 272,502 L 271,502 L 266,507 L 265,507 L 262,510 L 261,510 L 257,514 L 256,514 L 254,516 L 253,516 L 250,519 L 249,519 L 248,520 L 249,520 L 250,521 L 251,521 L 252,522 L 254,522 L 255,523 L 257,523 L 258,524 L 260,524 L 261,525 L 264,525 L 265,526 L 267,526 L 268,527 L 271,527 L 272,528 L 274,528 L 275,529 L 279,529 L 280,530 L 283,530 L 284,531 L 288,531 L 289,532 L 294,532 L 295,533 L 300,533 L 301,534 L 309,534 L 310,535 L 323,535 L 324,536 L 344,536 L 345,535 L 358,535 L 359,534 L 367,534 L 368,533 L 373,533 L 374,532 L 379,532 L 380,531 L 383,531 L 374,522 L 374,521 L 372,519 L 372,518 L 371,517 L 371,516 L 370,515 L 370,514 L 369,513 L 369,512 L 368,511 L 368,509 L 367,508 L 367,505 L 366,504 L 366,497 L 365,496 L 365,492 L 366,491 L 366,483 L 367,482 L 367,477 L 368,476 L 368,472 L 369,471 L 369,467 L 370,466 L 370,463 L 371,462 L 371,460 L 372,459 L 372,456 L 373,455 L 373,452 L 374,451 L 374,449 L 375,448 L 375,446 L 376,445 L 376,443 L 377,442 L 377,440 L 378,439 L 378,437 L 379,436 L 379,434 L 380,433 L 380,431 L 381,430 L 381,429 L 382,428 L 382,426 L 383,425 L 383,423 L 384,422 L 384,421 L 385,420 L 385,418 L 386,417 L 386,416 L 387,415 L 387,413 L 388,412 L 388,411 L 389,410 L 389,409 L 390,408 L 390,406 L 391,405 L 391,404 L 392,403 L 392,402 L 393,401 L 393,400 L 394,399 L 394,397 L 395,396 L 395,395 L 396,394 L 396,393 L 397,392 L 397,391 L 398,390 L 398,389 L 399,388 L 399,387 L 400,386 L 400,384 L 401,383 L 401,382 L 402,381 L 402,380 L 403,379 L 403,378 L 404,377 L 404,376 L 405,375 L 405,374 L 406,373 L 406,372 L 407,371 L 407,370 L 408,369 L 408,368 L 409,367 L 409,366 L 411,364 L 411,363 L 412,362 L 412,361 L 413,360 L 413,359 L 414,358 L 414,357 L 415,356 L 415,355 L 416,354 L 416,353 L 417,352 L 417,351 L 419,349 L 419,348 L 420,347 L 420,346 L 421,345 L 421,344 L 423,342 L 423,341 L 424,340 L 424,339 L 425,338 L 425,337 L 427,335 L 427,334 L 428,333 L 428,332 L 429,331 L 429,330 L 431,328 L 431,327 L 432,326 L 432,325 L 434,323 L 434,322 L 435,321 L 435,320 L 437,318 L 437,317 L 439,315 L 439,314 L 440,313 L 440,312 L 442,310 L 442,309 L 444,307 L 444,306 L 446,304 L 446,303 L 447,302 L 447,301 L 449,299 L 449,298 L 451,296 L 451,295 L 453,293 L 453,292 L 455,290 L 455,289 L 457,287 L 457,286 L 460,283 L 460,282 L 462,280 L 462,279 L 464,277 L 464,276 L 467,273 L 467,272 L 469,270 L 469,269 L 472,266 L 472,265 Z" fill="black"/>
    <path d="M 561,217 L 556,222 L 556,223 L 549,230 L 549,231 L 544,236 L 544,237 L 540,241 L 540,242 L 536,246 L 536,247 L 532,251 L 532,252 L 529,255 L 529,256 L 526,259 L 526,260 L 523,263 L 523,264 L 521,266 L 521,267 L 518,270 L 518,271 L 516,273 L 516,274 L 514,276 L 514,277 L 512,279 L 512,280 L 510,282 L 510,283 L 508,285 L 508,286 L 506,288 L 506,289 L 504,291 L 504,292 L 502,294 L 502,295 L 500,297 L 500,298 L 499,299 L 499,300 L 497,302 L 497,303 L 496,304 L 496,305 L 494,307 L 494,308 L 493,309 L 493,310 L 491,312 L 491,313 L 490,314 L 490,315 L 488,317 L 488,318 L 487,319 L 487,320 L 486,321 L 486,322 L 484,324 L 484,325 L 483,326 L 483,327 L 482,328 L 482,329 L 481,330 L 481,331 L 479,333 L 479,334 L 478,335 L 478,336 L 477,337 L 477,338 L 476,339 L 476,340 L 475,341 L 475,342 L 474,343 L 474,344 L 473,345 L 473,346 L 472,347 L 472,348 L 471,349 L 471,350 L 470,351 L 470,352 L 469,353 L 469,354 L 468,355 L 468,356 L 467,357 L 467,358 L 466,359 L 466,360 L 465,361 L 465,362 L 464,363 L 464,364 L 463,365 L 463,367 L 462,368 L 462,369 L 461,370 L 461,371 L 460,372 L 460,373 L 459,374 L 459,375 L 458,376 L 458,378 L 457,379 L 457,380 L 456,381 L 456,382 L 455,383 L 455,385 L 454,386 L 454,387 L 453,388 L 453,390 L 452,391 L 452,392 L 451,393 L 451,394 L 450,395 L 450,397 L 449,398 L 449,400 L 448,401 L 448,402 L 447,403 L 447,405 L 446,406 L 446,408 L 445,409 L 445,410 L 444,411 L 444,413 L 443,414 L 443,416 L 442,417 L 442,419 L 441,420 L 441,422 L 440,423 L 440,425 L 439,426 L 439,428 L 438,429 L 438,431 L 437,432 L 437,434 L 436,435 L 436,438 L 435,439 L 435,441 L 434,442 L 434,445 L 433,446 L 433,448 L 432,449 L 432,451 L 433,450 L 433,449 L 434,448 L 434,447 L 436,445 L 436,444 L 438,442 L 438,441 L 439,440 L 439,439 L 441,437 L 441,436 L 443,434 L 443,433 L 445,431 L 445,430 L 447,428 L 447,427 L 449,425 L 449,424 L 451,422 L 451,421 L 453,419 L 453,418 L 455,416 L 455,415 L 457,413 L 457,412 L 459,410 L 459,409 L 461,407 L 461,406 L 463,404 L 463,403 L 466,400 L 466,399 L 468,397 L 468,396 L 471,393 L 471,392 L 474,389 L 474,388 L 476,386 L 476,385 L 479,382 L 479,381 L 482,378 L 482,377 L 485,374 L 485,373 L 489,369 L 489,368 L 492,365 L 492,364 L 496,360 L 496,359 L 500,355 L 500,354 L 504,350 L 504,349 L 509,344 L 509,343 L 515,337 L 515,336 L 521,330 L 521,329 L 529,321 L 529,320 L 539,310 L 539,309 L 574,274 L 574,272 L 573,271 L 573,264 L 572,263 L 572,257 L 571,256 L 571,251 L 570,250 L 570,246 L 569,245 L 569,241 L 568,240 L 568,237 L 567,236 L 567,233 L 566,232 L 566,230 L 565,229 L 565,226 L 564,225 L 564,223 L 563,222 L 563,220 L 562,219 L 562,217 Z" fill="black"/>
    <path d="M 782,166 L 780,168 L 779,168 L 767,180 L 766,180 L 739,207 L 739,208 L 728,219 L 728,220 L 721,227 L 721,228 L 715,234 L 715,235 L 710,240 L 710,241 L 706,245 L 706,246 L 702,250 L 702,251 L 699,254 L 699,255 L 695,259 L 695,260 L 692,263 L 692,264 L 689,267 L 689,268 L 687,270 L 687,271 L 684,274 L 684,275 L 682,277 L 682,278 L 679,281 L 679,282 L 677,284 L 677,285 L 675,287 L 675,288 L 673,290 L 673,291 L 671,293 L 671,294 L 669,296 L 669,297 L 667,299 L 667,300 L 666,301 L 666,302 L 664,304 L 664,305 L 662,307 L 662,308 L 661,309 L 661,310 L 659,312 L 659,313 L 658,314 L 658,315 L 656,317 L 656,318 L 655,319 L 655,320 L 653,322 L 653,323 L 652,324 L 652,325 L 651,326 L 651,327 L 649,329 L 649,330 L 648,331 L 648,332 L 647,333 L 647,334 L 646,335 L 646,336 L 644,338 L 644,339 L 643,340 L 643,341 L 642,342 L 642,343 L 641,344 L 641,345 L 640,346 L 640,347 L 639,348 L 639,349 L 638,350 L 638,351 L 637,352 L 637,353 L 636,354 L 636,355 L 635,356 L 635,357 L 634,358 L 634,359 L 633,360 L 633,361 L 632,362 L 632,363 L 631,364 L 631,366 L 630,367 L 630,368 L 629,369 L 629,370 L 628,371 L 628,372 L 627,373 L 627,374 L 626,375 L 626,377 L 625,378 L 625,379 L 624,380 L 624,382 L 623,383 L 623,384 L 622,385 L 622,386 L 621,387 L 621,389 L 620,390 L 620,391 L 619,392 L 619,394 L 618,395 L 618,397 L 617,398 L 617,399 L 616,400 L 616,402 L 615,403 L 615,405 L 614,406 L 614,408 L 613,409 L 613,411 L 612,412 L 612,414 L 611,415 L 611,417 L 610,418 L 610,420 L 609,421 L 609,424 L 608,425 L 608,427 L 607,428 L 607,431 L 606,432 L 606,435 L 605,436 L 605,439 L 604,440 L 604,443 L 603,444 L 603,448 L 602,449 L 602,453 L 601,454 L 601,459 L 600,460 L 600,466 L 599,467 L 599,476 L 598,477 L 598,496 L 599,497 L 599,505 L 600,506 L 600,510 L 601,511 L 601,513 L 602,514 L 602,516 L 603,517 L 603,519 L 604,520 L 604,521 L 605,522 L 605,523 L 606,524 L 606,525 L 607,526 L 607,527 L 610,530 L 610,531 L 611,532 L 612,532 L 616,536 L 617,536 L 619,538 L 620,538 L 622,540 L 622,541 L 616,547 L 615,547 L 612,550 L 611,550 L 609,552 L 608,552 L 606,554 L 605,554 L 604,555 L 603,555 L 602,556 L 601,556 L 600,557 L 599,557 L 598,558 L 596,558 L 595,559 L 593,559 L 592,560 L 590,560 L 589,561 L 586,561 L 585,562 L 579,562 L 578,563 L 561,563 L 560,562 L 555,562 L 554,561 L 551,561 L 550,560 L 548,560 L 547,559 L 545,559 L 544,558 L 543,558 L 542,557 L 541,557 L 539,555 L 538,555 L 536,553 L 535,553 L 528,546 L 528,545 L 526,543 L 526,542 L 524,540 L 524,539 L 523,538 L 523,537 L 522,536 L 522,534 L 521,533 L 521,531 L 520,530 L 520,528 L 519,527 L 519,523 L 518,522 L 518,498 L 519,497 L 519,490 L 520,489 L 520,484 L 521,483 L 521,478 L 522,477 L 522,474 L 523,473 L 510,486 L 509,486 L 501,494 L 500,494 L 496,498 L 495,498 L 491,502 L 490,502 L 487,505 L 486,505 L 484,507 L 483,507 L 480,510 L 479,510 L 477,512 L 476,512 L 474,514 L 473,514 L 472,515 L 471,515 L 469,517 L 468,517 L 467,518 L 466,518 L 464,520 L 463,520 L 462,521 L 461,521 L 460,522 L 459,522 L 457,524 L 456,524 L 455,525 L 454,525 L 453,526 L 452,526 L 451,527 L 450,527 L 449,528 L 448,528 L 447,529 L 446,529 L 445,530 L 444,530 L 443,531 L 442,531 L 441,532 L 439,532 L 438,533 L 437,533 L 436,534 L 435,534 L 432,537 L 432,538 L 431,539 L 431,540 L 430,541 L 430,542 L 428,544 L 422,544 L 421,545 L 420,545 L 419,544 L 407,544 L 406,545 L 403,545 L 402,546 L 399,546 L 398,547 L 395,547 L 394,548 L 391,548 L 390,549 L 386,549 L 385,550 L 381,550 L 380,551 L 375,551 L 374,552 L 369,552 L 368,553 L 360,553 L 359,554 L 346,554 L 345,555 L 323,555 L 322,554 L 309,554 L 308,553 L 300,553 L 299,552 L 294,552 L 293,551 L 288,551 L 287,550 L 283,550 L 282,549 L 278,549 L 277,548 L 274,548 L 273,547 L 270,547 L 269,546 L 266,546 L 265,545 L 262,545 L 261,544 L 259,544 L 258,543 L 256,543 L 255,542 L 253,542 L 252,541 L 250,541 L 249,540 L 247,540 L 246,539 L 244,539 L 243,538 L 242,538 L 241,537 L 239,537 L 238,536 L 237,536 L 236,535 L 234,535 L 233,534 L 232,534 L 231,533 L 229,533 L 228,532 L 227,533 L 226,533 L 225,534 L 224,534 L 223,535 L 222,535 L 221,536 L 220,536 L 219,537 L 218,537 L 217,538 L 216,538 L 215,539 L 214,539 L 213,540 L 212,540 L 211,541 L 210,541 L 209,542 L 208,542 L 207,543 L 206,543 L 205,544 L 203,544 L 202,545 L 201,545 L 200,546 L 198,546 L 197,547 L 196,547 L 195,548 L 194,548 L 192,550 L 190,550 L 189,551 L 187,551 L 186,552 L 184,552 L 183,553 L 181,553 L 180,554 L 178,554 L 177,555 L 174,555 L 173,556 L 170,556 L 169,557 L 166,557 L 165,558 L 162,558 L 161,559 L 157,559 L 156,560 L 152,560 L 151,561 L 145,561 L 144,562 L 136,562 L 135,563 L 99,563 L 98,562 L 91,562 L 90,561 L 85,561 L 84,560 L 80,560 L 79,559 L 76,559 L 75,558 L 72,558 L 71,557 L 68,557 L 67,556 L 65,556 L 64,555 L 62,555 L 61,554 L 60,554 L 59,553 L 57,553 L 56,552 L 55,552 L 54,551 L 53,551 L 52,550 L 50,550 L 49,549 L 48,549 L 46,547 L 45,547 L 44,546 L 43,546 L 42,545 L 41,545 L 39,543 L 38,543 L 37,542 L 36,542 L 33,539 L 32,539 L 29,536 L 28,536 L 14,522 L 14,521 L 11,518 L 11,517 L 9,515 L 9,514 L 7,512 L 7,511 L 6,510 L 6,509 L 5,508 L 5,507 L 3,505 L 3,503 L 2,502 L 2,501 L 1,500 L 1,499 L 0,498 L 0,496 L 0,586 L 782,586 Z" fill="black"/>
    <path d="M 506,155 L 505,156 L 492,156 L 491,157 L 482,157 L 481,158 L 473,158 L 472,159 L 466,159 L 465,160 L 459,160 L 458,161 L 453,161 L 452,162 L 447,162 L 446,163 L 441,163 L 440,164 L 436,164 L 435,165 L 431,165 L 430,166 L 427,166 L 426,167 L 422,167 L 421,168 L 418,168 L 417,169 L 414,169 L 413,170 L 410,170 L 409,171 L 406,171 L 405,172 L 403,172 L 402,173 L 399,173 L 398,174 L 396,174 L 395,175 L 393,175 L 392,176 L 390,176 L 389,177 L 387,177 L 386,178 L 384,178 L 383,179 L 381,179 L 380,180 L 378,180 L 377,181 L 375,181 L 374,182 L 373,182 L 372,183 L 370,183 L 369,184 L 368,184 L 367,185 L 365,185 L 364,186 L 363,186 L 362,187 L 361,187 L 360,188 L 359,188 L 358,189 L 356,189 L 355,190 L 354,190 L 353,191 L 352,191 L 351,192 L 350,192 L 349,193 L 348,193 L 346,195 L 345,195 L 344,196 L 343,196 L 342,197 L 341,197 L 339,199 L 338,199 L 337,200 L 336,200 L 334,202 L 333,202 L 331,204 L 330,204 L 327,207 L 326,207 L 321,212 L 320,212 L 313,219 L 313,220 L 309,224 L 309,225 L 307,227 L 307,228 L 305,230 L 305,231 L 304,232 L 304,233 L 303,234 L 303,236 L 302,237 L 302,238 L 301,239 L 301,241 L 300,242 L 300,246 L 299,247 L 299,263 L 300,264 L 300,267 L 301,268 L 301,270 L 302,271 L 302,273 L 303,274 L 303,275 L 304,276 L 304,277 L 305,278 L 305,279 L 308,282 L 308,283 L 314,289 L 315,289 L 317,291 L 318,291 L 319,292 L 320,292 L 321,293 L 322,293 L 323,294 L 324,294 L 325,295 L 328,295 L 329,296 L 333,296 L 334,297 L 345,297 L 346,296 L 351,296 L 352,295 L 355,295 L 356,294 L 358,294 L 359,293 L 360,293 L 361,292 L 363,292 L 364,291 L 365,291 L 366,290 L 367,290 L 368,289 L 369,289 L 370,288 L 371,288 L 373,286 L 374,286 L 373,285 L 372,285 L 371,284 L 370,284 L 369,283 L 368,283 L 367,282 L 366,282 L 363,279 L 362,279 L 358,275 L 358,274 L 356,272 L 356,271 L 354,269 L 354,267 L 353,266 L 353,252 L 354,251 L 354,248 L 355,247 L 355,246 L 356,245 L 356,243 L 357,242 L 357,241 L 358,240 L 358,239 L 360,237 L 360,236 L 362,234 L 362,233 L 378,217 L 379,217 L 382,214 L 383,214 L 385,212 L 386,212 L 388,210 L 389,210 L 391,208 L 392,208 L 393,207 L 394,207 L 395,206 L 396,206 L 398,204 L 399,204 L 400,203 L 401,203 L 402,202 L 403,202 L 404,201 L 405,201 L 406,200 L 407,200 L 408,199 L 410,199 L 411,198 L 412,198 L 413,197 L 414,197 L 415,196 L 416,196 L 417,195 L 419,195 L 420,194 L 422,194 L 423,193 L 424,193 L 425,192 L 427,192 L 428,191 L 430,191 L 431,190 L 433,190 L 434,189 L 436,189 L 437,188 L 439,188 L 440,187 L 442,187 L 443,186 L 446,186 L 447,185 L 450,185 L 451,184 L 453,184 L 454,183 L 458,183 L 459,182 L 462,182 L 463,181 L 467,181 L 468,180 L 472,180 L 473,179 L 477,179 L 478,178 L 483,178 L 484,177 L 489,177 L 490,176 L 497,176 L 498,175 L 505,175 L 506,174 L 517,174 L 518,173 L 525,173 L 526,174 L 525,175 L 524,175 L 522,177 L 521,177 L 519,179 L 518,179 L 516,181 L 515,181 L 513,183 L 512,183 L 510,185 L 509,185 L 506,188 L 505,188 L 502,191 L 501,191 L 498,194 L 497,194 L 493,198 L 492,198 L 488,202 L 487,202 L 482,207 L 481,207 L 475,213 L 474,213 L 466,221 L 465,221 L 454,232 L 453,232 L 427,258 L 426,258 L 419,265 L 419,266 L 387,298 L 387,299 L 371,315 L 371,316 L 358,329 L 358,330 L 346,342 L 346,343 L 335,354 L 335,355 L 325,365 L 325,366 L 315,376 L 315,377 L 305,387 L 305,388 L 295,398 L 295,399 L 285,409 L 285,410 L 272,423 L 272,424 L 268,428 L 267,428 L 255,440 L 254,440 L 249,445 L 248,445 L 244,449 L 243,449 L 240,452 L 239,452 L 236,455 L 235,455 L 233,457 L 232,457 L 230,459 L 229,459 L 227,461 L 226,461 L 224,463 L 223,463 L 221,465 L 220,465 L 219,466 L 218,466 L 216,468 L 215,468 L 214,469 L 213,469 L 211,471 L 210,471 L 209,472 L 208,472 L 207,473 L 206,473 L 205,474 L 204,474 L 203,475 L 202,475 L 201,476 L 200,476 L 199,477 L 198,477 L 197,478 L 196,478 L 195,479 L 194,479 L 193,480 L 192,480 L 191,481 L 190,481 L 189,482 L 188,482 L 187,483 L 185,483 L 184,484 L 183,484 L 182,485 L 181,485 L 180,486 L 178,486 L 177,487 L 176,487 L 175,488 L 173,488 L 172,489 L 170,489 L 169,490 L 167,490 L 166,491 L 164,491 L 163,492 L 161,492 L 160,493 L 158,493 L 157,494 L 155,494 L 154,495 L 151,495 L 150,496 L 147,496 L 146,497 L 143,497 L 142,498 L 139,498 L 138,499 L 135,499 L 134,500 L 130,500 L 129,501 L 124,501 L 123,502 L 117,502 L 116,503 L 109,503 L 108,504 L 98,504 L 97,505 L 65,505 L 64,504 L 54,504 L 53,503 L 46,503 L 45,502 L 40,502 L 39,501 L 35,501 L 34,500 L 30,500 L 29,499 L 26,499 L 25,498 L 22,498 L 21,497 L 18,497 L 17,496 L 15,496 L 14,495 L 11,495 L 10,494 L 8,494 L 8,496 L 9,497 L 9,498 L 10,499 L 10,501 L 11,502 L 11,503 L 13,505 L 13,506 L 14,507 L 14,508 L 15,509 L 15,510 L 18,513 L 18,514 L 21,517 L 21,518 L 32,529 L 33,529 L 37,533 L 38,533 L 40,535 L 41,535 L 43,537 L 44,537 L 45,538 L 46,538 L 47,539 L 48,539 L 50,541 L 51,541 L 52,542 L 53,542 L 54,543 L 56,543 L 57,544 L 58,544 L 59,545 L 60,545 L 61,546 L 63,546 L 64,547 L 66,547 L 67,548 L 69,548 L 70,549 L 72,549 L 73,550 L 76,550 L 77,551 L 80,551 L 81,552 L 85,552 L 86,553 L 91,553 L 92,554 L 99,554 L 100,555 L 133,555 L 134,554 L 143,554 L 144,553 L 149,553 L 150,552 L 155,552 L 156,551 L 160,551 L 161,550 L 164,550 L 165,549 L 168,549 L 169,548 L 172,548 L 173,547 L 175,547 L 176,546 L 179,546 L 180,545 L 182,545 L 183,544 L 185,544 L 186,543 L 188,543 L 189,542 L 191,542 L 192,541 L 193,541 L 194,540 L 196,540 L 197,539 L 198,539 L 199,538 L 201,538 L 202,537 L 203,537 L 204,536 L 205,536 L 206,535 L 207,535 L 208,534 L 210,534 L 211,533 L 212,533 L 213,532 L 214,532 L 215,531 L 216,531 L 217,530 L 218,530 L 219,529 L 220,529 L 221,528 L 222,528 L 224,526 L 225,526 L 226,525 L 227,525 L 228,524 L 229,524 L 231,522 L 232,522 L 233,521 L 234,521 L 236,519 L 237,519 L 238,518 L 239,518 L 241,516 L 242,516 L 244,514 L 245,514 L 247,512 L 248,512 L 251,509 L 252,509 L 255,506 L 256,506 L 259,503 L 260,503 L 264,499 L 265,499 L 272,492 L 273,492 L 303,462 L 303,461 L 314,450 L 314,449 L 321,442 L 321,441 L 327,435 L 327,434 L 333,428 L 333,427 L 338,422 L 338,421 L 343,416 L 343,415 L 347,411 L 347,410 L 351,406 L 351,405 L 355,401 L 355,400 L 359,396 L 359,395 L 363,391 L 363,390 L 366,387 L 366,386 L 370,382 L 370,381 L 373,378 L 373,377 L 377,373 L 377,372 L 380,369 L 380,368 L 384,364 L 384,363 L 387,360 L 387,359 L 390,356 L 390,355 L 393,352 L 393,351 L 397,347 L 397,346 L 400,343 L 400,342 L 403,339 L 403,338 L 407,334 L 407,333 L 410,330 L 410,329 L 413,326 L 413,325 L 417,321 L 417,320 L 420,317 L 420,316 L 424,312 L 424,311 L 428,307 L 428,306 L 432,302 L 432,301 L 436,297 L 436,296 L 440,292 L 440,291 L 445,286 L 445,285 L 450,280 L 450,279 L 456,273 L 456,272 L 463,265 L 463,264 L 474,253 L 474,252 L 493,233 L 494,233 L 503,224 L 504,224 L 509,219 L 510,219 L 514,215 L 515,215 L 519,211 L 520,211 L 522,209 L 523,209 L 526,206 L 527,206 L 529,204 L 530,204 L 532,202 L 533,202 L 535,200 L 536,200 L 537,201 L 517,221 L 517,222 L 509,230 L 509,231 L 503,237 L 503,238 L 498,243 L 498,244 L 494,248 L 494,249 L 490,253 L 490,254 L 487,257 L 487,258 L 483,262 L 483,263 L 480,266 L 480,267 L 477,270 L 477,271 L 475,273 L 475,274 L 472,277 L 472,278 L 470,280 L 470,281 L 467,284 L 467,285 L 465,287 L 465,288 L 463,290 L 463,291 L 461,293 L 461,294 L 459,296 L 459,297 L 457,299 L 457,300 L 455,302 L 455,303 L 453,305 L 453,306 L 451,308 L 451,309 L 449,311 L 449,312 L 448,313 L 448,314 L 446,316 L 446,317 L 444,319 L 444,320 L 443,321 L 443,322 L 441,324 L 441,325 L 440,326 L 440,327 L 438,329 L 438,330 L 437,331 L 437,332 L 435,334 L 435,335 L 434,336 L 434,337 L 432,339 L 432,340 L 431,341 L 431,342 L 430,343 L 430,344 L 428,346 L 428,347 L 427,348 L 427,349 L 426,350 L 426,351 L 424,353 L 424,354 L 423,355 L 423,356 L 422,357 L 422,358 L 421,359 L 421,360 L 420,361 L 420,362 L 419,363 L 419,364 L 418,365 L 418,366 L 416,368 L 416,369 L 415,370 L 415,371 L 414,372 L 414,373 L 413,374 L 413,375 L 412,376 L 412,377 L 411,378 L 411,379 L 410,380 L 410,381 L 409,382 L 409,383 L 408,384 L 408,385 L 407,386 L 407,387 L 406,388 L 406,390 L 405,391 L 405,392 L 404,393 L 404,394 L 403,395 L 403,396 L 402,397 L 402,398 L 401,399 L 401,400 L 400,401 L 400,403 L 399,404 L 399,405 L 398,406 L 398,407 L 397,408 L 397,410 L 396,411 L 396,412 L 395,413 L 395,414 L 394,415 L 394,417 L 393,418 L 393,419 L 392,420 L 392,422 L 391,423 L 391,424 L 390,425 L 390,427 L 389,428 L 389,429 L 388,430 L 388,432 L 387,433 L 387,435 L 386,436 L 386,438 L 385,439 L 385,441 L 384,442 L 384,444 L 383,445 L 383,447 L 382,448 L 382,450 L 381,451 L 381,453 L 380,454 L 380,457 L 379,458 L 379,460 L 378,461 L 378,464 L 377,465 L 377,468 L 376,469 L 376,473 L 375,474 L 375,478 L 374,479 L 374,484 L 373,485 L 373,502 L 374,503 L 374,506 L 375,507 L 375,509 L 376,510 L 376,511 L 377,512 L 377,513 L 378,514 L 378,515 L 379,516 L 379,517 L 382,520 L 382,521 L 387,526 L 388,526 L 391,529 L 392,529 L 393,530 L 394,530 L 396,532 L 398,532 L 399,533 L 400,533 L 401,534 L 403,534 L 404,535 L 406,535 L 407,536 L 411,536 L 412,537 L 425,537 L 425,536 L 426,535 L 426,534 L 427,533 L 427,532 L 428,531 L 428,530 L 429,529 L 429,528 L 430,527 L 430,526 L 432,524 L 432,523 L 433,522 L 433,521 L 434,520 L 434,519 L 435,518 L 435,517 L 437,515 L 437,514 L 438,513 L 438,512 L 439,511 L 439,510 L 441,508 L 441,507 L 442,506 L 442,505 L 443,504 L 443,503 L 445,501 L 445,500 L 446,499 L 446,498 L 448,496 L 448,495 L 449,494 L 449,493 L 451,491 L 451,490 L 452,489 L 452,488 L 454,486 L 454,485 L 455,484 L 455,483 L 457,481 L 457,480 L 458,479 L 458,478 L 460,476 L 460,475 L 461,474 L 461,473 L 463,471 L 463,470 L 465,468 L 465,467 L 467,465 L 467,464 L 468,463 L 468,462 L 470,460 L 470,459 L 472,457 L 472,456 L 474,454 L 474,453 L 476,451 L 476,450 L 478,448 L 478,447 L 480,445 L 480,444 L 482,442 L 482,441 L 484,439 L 484,438 L 486,436 L 486,435 L 488,433 L 488,432 L 490,430 L 490,429 L 493,426 L 493,425 L 495,423 L 495,422 L 498,419 L 498,418 L 500,416 L 500,415 L 503,412 L 503,411 L 506,408 L 506,407 L 508,405 L 508,404 L 511,401 L 511,400 L 514,397 L 514,396 L 518,392 L 518,391 L 521,388 L 521,387 L 525,383 L 525,382 L 528,379 L 528,378 L 532,374 L 532,373 L 537,368 L 537,367 L 542,362 L 542,361 L 547,356 L 547,355 L 553,349 L 553,348 L 560,341 L 560,340 L 568,332 L 568,331 L 580,319 L 580,318 L 621,277 L 622,277 L 634,265 L 635,265 L 643,257 L 644,257 L 651,250 L 652,250 L 658,244 L 659,244 L 664,239 L 665,239 L 666,240 L 665,241 L 665,242 L 659,248 L 659,249 L 654,254 L 654,255 L 650,259 L 650,260 L 646,264 L 646,265 L 642,269 L 642,270 L 638,274 L 638,275 L 635,278 L 635,279 L 632,282 L 632,283 L 629,286 L 629,287 L 626,290 L 626,291 L 623,294 L 623,295 L 620,298 L 620,299 L 618,301 L 618,302 L 615,305 L 615,306 L 613,308 L 613,309 L 611,311 L 611,312 L 608,315 L 608,316 L 606,318 L 606,319 L 604,321 L 604,322 L 602,324 L 602,325 L 600,327 L 600,328 L 598,330 L 598,331 L 596,333 L 596,334 L 595,335 L 595,336 L 593,338 L 593,339 L 591,341 L 591,342 L 589,344 L 589,345 L 588,346 L 588,347 L 586,349 L 586,350 L 585,351 L 585,352 L 583,354 L 583,355 L 582,356 L 582,357 L 580,359 L 580,360 L 579,361 L 579,362 L 577,364 L 577,365 L 576,366 L 576,367 L 575,368 L 575,369 L 573,371 L 573,372 L 572,373 L 572,374 L 571,375 L 571,376 L 570,377 L 570,378 L 568,380 L 568,381 L 567,382 L 567,383 L 566,384 L 566,385 L 565,386 L 565,387 L 564,388 L 564,389 L 563,390 L 563,391 L 562,392 L 562,393 L 561,394 L 561,395 L 560,396 L 560,397 L 559,398 L 559,399 L 558,400 L 558,401 L 557,402 L 557,403 L 556,404 L 556,405 L 555,406 L 555,407 L 554,408 L 554,409 L 553,410 L 553,411 L 552,412 L 552,413 L 551,414 L 551,415 L 550,416 L 550,418 L 549,419 L 549,420 L 548,421 L 548,422 L 547,423 L 547,424 L 546,425 L 546,427 L 545,428 L 545,429 L 544,430 L 544,432 L 543,433 L 543,434 L 542,435 L 542,437 L 541,438 L 541,439 L 540,440 L 540,442 L 539,443 L 539,445 L 538,446 L 538,448 L 537,449 L 537,450 L 536,451 L 536,453 L 535,454 L 535,457 L 534,458 L 534,460 L 533,461 L 533,463 L 532,464 L 532,467 L 531,468 L 531,471 L 530,472 L 530,475 L 529,476 L 529,479 L 528,480 L 528,485 L 527,486 L 527,491 L 526,492 L 526,502 L 525,503 L 525,512 L 526,513 L 526,521 L 527,522 L 527,526 L 528,527 L 528,529 L 529,530 L 529,532 L 530,533 L 530,534 L 531,535 L 531,536 L 532,537 L 532,538 L 535,541 L 535,542 L 539,546 L 540,546 L 543,549 L 544,549 L 545,550 L 546,550 L 547,551 L 548,551 L 549,552 L 551,552 L 552,553 L 555,553 L 556,554 L 561,554 L 562,555 L 577,555 L 578,554 L 583,554 L 584,553 L 588,553 L 589,552 L 591,552 L 592,551 L 594,551 L 595,550 L 596,550 L 597,549 L 598,549 L 599,548 L 600,548 L 601,547 L 602,547 L 603,546 L 604,546 L 606,544 L 607,544 L 610,541 L 608,539 L 607,539 L 604,536 L 604,535 L 600,531 L 600,530 L 599,529 L 599,528 L 598,527 L 598,526 L 597,525 L 597,524 L 596,523 L 596,522 L 595,521 L 595,519 L 594,518 L 594,516 L 593,515 L 593,512 L 592,511 L 592,507 L 591,506 L 591,499 L 590,498 L 590,476 L 591,475 L 591,466 L 592,465 L 592,459 L 593,458 L 593,453 L 594,452 L 594,448 L 595,447 L 595,443 L 596,442 L 596,439 L 597,438 L 597,434 L 598,433 L 598,431 L 599,430 L 599,427 L 600,426 L 600,423 L 601,422 L 601,420 L 602,419 L 602,417 L 603,416 L 603,414 L 604,413 L 604,410 L 605,409 L 605,407 L 606,406 L 606,405 L 607,404 L 607,402 L 608,401 L 608,399 L 609,398 L 609,396 L 610,395 L 610,393 L 611,392 L 611,391 L 612,390 L 612,388 L 613,387 L 613,386 L 614,385 L 614,383 L 615,382 L 615,381 L 616,380 L 616,378 L 617,377 L 617,376 L 618,375 L 618,374 L 619,373 L 619,372 L 620,371 L 620,369 L 621,368 L 621,367 L 622,366 L 622,365 L 623,364 L 623,363 L 624,362 L 624,360 L 625,359 L 625,358 L 626,357 L 626,356 L 627,355 L 627,354 L 628,353 L 628,352 L 629,351 L 629,350 L 630,349 L 630,348 L 631,347 L 631,346 L 632,345 L 632,344 L 633,343 L 633,342 L 634,341 L 634,340 L 635,339 L 635,338 L 637,336 L 637,335 L 638,334 L 638,333 L 639,332 L 639,331 L 640,330 L 640,329 L 641,328 L 641,327 L 643,325 L 643,324 L 644,323 L 644,322 L 645,321 L 645,320 L 647,318 L 647,317 L 648,316 L 648,315 L 649,314 L 649,313 L 651,311 L 651,310 L 652,309 L 652,308 L 654,306 L 654,305 L 656,303 L 656,302 L 657,301 L 657,300 L 659,298 L 659,297 L 661,295 L 661,294 L 663,292 L 663,291 L 664,290 L 664,289 L 666,287 L 666,286 L 668,284 L 668,283 L 671,280 L 671,279 L 673,277 L 673,276 L 675,274 L 675,273 L 678,270 L 678,269 L 680,267 L 680,266 L 683,263 L 683,262 L 686,259 L 686,258 L 689,255 L 689,254 L 692,251 L 692,250 L 696,246 L 696,245 L 699,242 L 699,241 L 704,236 L 704,235 L 709,230 L 709,229 L 714,224 L 714,223 L 722,215 L 722,214 L 733,203 L 733,202 L 762,173 L 763,173 L 774,162 L 775,162 L 782,155 L 751,155 L 749,157 L 748,157 L 747,158 L 746,158 L 745,159 L 744,159 L 743,160 L 742,160 L 741,161 L 740,161 L 739,162 L 738,162 L 736,164 L 735,164 L 734,165 L 733,165 L 732,166 L 731,166 L 730,167 L 729,167 L 727,169 L 726,169 L 725,170 L 724,170 L 723,171 L 722,171 L 720,173 L 719,173 L 718,174 L 717,174 L 716,175 L 715,175 L 713,177 L 712,177 L 711,178 L 710,178 L 708,180 L 707,180 L 705,182 L 704,182 L 703,183 L 702,183 L 700,185 L 699,185 L 697,187 L 696,187 L 695,188 L 694,188 L 692,190 L 691,190 L 689,192 L 688,192 L 686,194 L 685,194 L 683,196 L 682,196 L 680,198 L 679,198 L 677,200 L 676,200 L 674,202 L 673,202 L 671,204 L 670,204 L 667,207 L 666,207 L 664,209 L 663,209 L 660,212 L 659,212 L 657,214 L 656,214 L 653,217 L 652,217 L 649,220 L 648,220 L 645,223 L 644,223 L 641,226 L 640,226 L 636,230 L 635,230 L 631,234 L 630,234 L 626,238 L 625,238 L 621,242 L 620,242 L 615,247 L 614,247 L 608,253 L 607,253 L 600,260 L 599,260 L 589,270 L 588,270 L 542,316 L 542,317 L 533,326 L 533,327 L 525,335 L 525,336 L 519,342 L 519,343 L 514,348 L 514,349 L 509,354 L 509,355 L 505,359 L 505,360 L 501,364 L 501,365 L 497,369 L 497,370 L 494,373 L 494,374 L 490,378 L 490,379 L 487,382 L 487,383 L 484,386 L 484,387 L 482,389 L 482,390 L 479,393 L 479,394 L 476,397 L 476,398 L 474,400 L 474,401 L 471,404 L 471,405 L 469,407 L 469,408 L 467,410 L 467,411 L 464,414 L 464,415 L 462,417 L 462,418 L 460,420 L 460,421 L 458,423 L 458,424 L 456,426 L 456,427 L 454,429 L 454,430 L 452,432 L 452,433 L 450,435 L 450,436 L 449,437 L 449,438 L 447,440 L 447,441 L 445,443 L 445,444 L 443,446 L 443,447 L 442,448 L 442,449 L 440,451 L 440,452 L 438,454 L 438,455 L 437,456 L 437,457 L 435,459 L 435,460 L 434,461 L 434,462 L 432,464 L 432,465 L 431,466 L 431,467 L 429,469 L 429,470 L 428,471 L 428,472 L 427,473 L 427,474 L 425,476 L 425,477 L 424,478 L 424,479 L 422,481 L 422,482 L 421,483 L 421,484 L 420,485 L 420,486 L 419,487 L 418,486 L 418,480 L 419,479 L 419,474 L 420,473 L 420,469 L 421,468 L 421,464 L 422,463 L 422,460 L 423,459 L 423,455 L 424,454 L 424,451 L 425,450 L 425,448 L 426,447 L 426,444 L 427,443 L 427,440 L 428,439 L 428,437 L 429,436 L 429,433 L 430,432 L 430,430 L 431,429 L 431,427 L 432,426 L 432,424 L 433,423 L 433,421 L 434,420 L 434,418 L 435,417 L 435,415 L 436,414 L 436,412 L 437,411 L 437,409 L 438,408 L 438,407 L 439,406 L 439,404 L 440,403 L 440,401 L 441,400 L 441,399 L 442,398 L 442,396 L 443,395 L 443,394 L 444,393 L 444,391 L 445,390 L 445,389 L 446,388 L 446,386 L 447,385 L 447,384 L 448,383 L 448,382 L 449,381 L 449,379 L 450,378 L 450,377 L 451,376 L 451,375 L 452,374 L 452,372 L 453,371 L 453,370 L 454,369 L 454,368 L 455,367 L 455,366 L 456,365 L 456,364 L 457,363 L 457,361 L 458,360 L 458,359 L 459,358 L 459,357 L 460,356 L 460,355 L 461,354 L 461,353 L 462,352 L 462,351 L 463,350 L 463,349 L 464,348 L 464,347 L 465,346 L 465,345 L 466,344 L 466,343 L 467,342 L 467,341 L 468,340 L 468,339 L 469,338 L 469,337 L 470,336 L 470,335 L 471,334 L 471,333 L 473,331 L 473,330 L 474,329 L 474,328 L 475,327 L 475,326 L 476,325 L 476,324 L 477,323 L 477,322 L 479,320 L 479,319 L 480,318 L 480,317 L 481,316 L 481,315 L 483,313 L 483,312 L 484,311 L 484,310 L 485,309 L 485,308 L 487,306 L 487,305 L 488,304 L 488,303 L 490,301 L 490,300 L 492,298 L 492,297 L 493,296 L 493,295 L 495,293 L 495,292 L 497,290 L 497,289 L 498,288 L 498,287 L 500,285 L 500,284 L 502,282 L 502,281 L 504,279 L 504,278 L 506,276 L 506,275 L 509,272 L 509,271 L 511,269 L 511,268 L 513,266 L 513,265 L 516,262 L 516,261 L 518,259 L 518,258 L 521,255 L 521,254 L 524,251 L 524,250 L 527,247 L 527,246 L 531,242 L 531,241 L 535,237 L 535,236 L 539,232 L 539,231 L 545,225 L 545,224 L 552,217 L 552,216 L 563,205 L 563,204 L 582,185 L 583,185 L 594,174 L 595,174 L 598,171 L 596,169 L 596,168 L 594,166 L 593,166 L 590,163 L 589,163 L 587,161 L 586,161 L 585,160 L 583,160 L 582,159 L 581,159 L 580,158 L 577,158 L 576,157 L 572,157 L 571,156 L 565,156 L 564,155 Z" fill="black"/>
    <path d="M 313,55 L 312,56 L 303,56 L 302,57 L 296,57 L 295,58 L 290,58 L 289,59 L 285,59 L 284,60 L 281,60 L 280,61 L 276,61 L 275,62 L 272,62 L 271,63 L 269,63 L 268,64 L 265,64 L 264,65 L 262,65 L 261,66 L 259,66 L 258,67 L 256,67 L 255,68 L 253,68 L 252,69 L 250,69 L 249,70 L 248,70 L 247,71 L 245,71 L 244,72 L 243,72 L 242,73 L 240,73 L 239,74 L 238,74 L 237,75 L 236,75 L 235,76 L 233,76 L 232,77 L 231,77 L 230,78 L 229,78 L 228,79 L 227,79 L 226,80 L 225,80 L 224,81 L 223,81 L 222,82 L 221,82 L 220,83 L 219,83 L 217,85 L 216,85 L 215,86 L 214,86 L 213,87 L 212,87 L 210,89 L 209,89 L 208,90 L 207,90 L 205,92 L 204,92 L 202,94 L 201,94 L 199,96 L 198,96 L 196,98 L 195,98 L 192,101 L 191,101 L 188,104 L 187,104 L 184,107 L 183,107 L 178,112 L 177,112 L 168,121 L 167,121 L 160,128 L 160,129 L 151,138 L 151,139 L 146,144 L 146,145 L 142,149 L 142,150 L 140,152 L 140,153 L 137,156 L 137,157 L 135,159 L 135,160 L 133,162 L 133,163 L 131,165 L 131,166 L 129,168 L 129,169 L 128,170 L 128,171 L 126,173 L 126,174 L 125,175 L 125,176 L 124,177 L 124,178 L 122,180 L 122,181 L 121,182 L 121,183 L 120,184 L 120,185 L 119,186 L 119,187 L 118,188 L 118,189 L 117,190 L 117,191 L 116,192 L 116,193 L 115,194 L 115,196 L 114,197 L 114,198 L 113,199 L 113,200 L 112,201 L 112,202 L 111,203 L 111,205 L 110,206 L 110,207 L 109,208 L 109,210 L 108,211 L 108,213 L 107,214 L 107,216 L 106,217 L 106,219 L 105,220 L 105,222 L 104,223 L 104,225 L 103,226 L 103,228 L 102,229 L 102,232 L 101,233 L 101,236 L 100,237 L 100,240 L 99,241 L 99,245 L 98,246 L 98,250 L 97,251 L 97,256 L 96,257 L 96,262 L 95,263 L 95,271 L 94,272 L 94,288 L 93,289 L 93,301 L 94,302 L 94,318 L 95,319 L 95,327 L 96,328 L 96,334 L 97,335 L 97,339 L 98,340 L 98,344 L 99,345 L 99,349 L 100,350 L 100,353 L 101,354 L 101,357 L 102,358 L 102,361 L 103,362 L 103,364 L 104,365 L 104,367 L 105,368 L 105,371 L 106,372 L 106,374 L 107,375 L 107,376 L 108,377 L 108,379 L 109,380 L 109,382 L 110,383 L 110,384 L 111,385 L 111,387 L 112,388 L 112,389 L 113,390 L 113,391 L 114,392 L 114,394 L 115,395 L 115,396 L 116,397 L 116,398 L 117,399 L 117,400 L 118,401 L 118,402 L 119,403 L 119,404 L 120,405 L 120,406 L 121,407 L 121,408 L 122,409 L 122,410 L 123,411 L 123,412 L 125,414 L 125,415 L 126,416 L 126,417 L 127,418 L 127,419 L 129,421 L 129,422 L 131,424 L 131,425 L 132,426 L 132,427 L 134,429 L 134,430 L 136,432 L 136,433 L 139,436 L 139,437 L 142,440 L 142,441 L 145,444 L 145,445 L 149,449 L 149,450 L 156,457 L 156,458 L 171,473 L 172,473 L 177,478 L 180,478 L 181,477 L 183,477 L 184,476 L 185,476 L 186,475 L 187,475 L 188,474 L 189,474 L 190,473 L 191,473 L 192,472 L 193,472 L 194,471 L 195,471 L 196,470 L 197,470 L 198,469 L 199,469 L 200,468 L 201,468 L 202,467 L 203,467 L 204,466 L 205,466 L 206,465 L 207,465 L 209,463 L 210,463 L 211,462 L 212,462 L 214,460 L 215,460 L 216,459 L 217,459 L 219,457 L 220,457 L 222,455 L 223,455 L 225,453 L 226,453 L 228,451 L 229,451 L 231,449 L 232,449 L 235,446 L 236,446 L 239,443 L 240,443 L 244,439 L 245,439 L 250,434 L 251,434 L 260,425 L 261,425 L 270,416 L 270,415 L 281,404 L 281,403 L 294,390 L 294,389 L 301,382 L 301,381 L 311,371 L 311,370 L 321,360 L 321,359 L 331,349 L 331,348 L 343,336 L 343,335 L 354,324 L 354,323 L 368,309 L 368,308 L 385,291 L 385,290 L 447,228 L 448,228 L 459,217 L 460,217 L 468,209 L 469,209 L 475,203 L 476,203 L 481,198 L 482,198 L 487,193 L 488,193 L 492,189 L 493,189 L 496,186 L 497,186 L 500,183 L 501,183 L 501,182 L 500,182 L 499,183 L 493,183 L 492,184 L 486,184 L 485,185 L 480,185 L 479,186 L 474,186 L 473,187 L 469,187 L 468,188 L 465,188 L 464,189 L 460,189 L 459,190 L 456,190 L 455,191 L 452,191 L 451,192 L 449,192 L 448,193 L 445,193 L 444,194 L 442,194 L 441,195 L 439,195 L 438,196 L 436,196 L 435,197 L 433,197 L 432,198 L 430,198 L 429,199 L 427,199 L 426,200 L 424,200 L 423,201 L 422,201 L 421,202 L 419,202 L 418,203 L 417,203 L 416,204 L 415,204 L 414,205 L 412,205 L 411,206 L 410,206 L 409,207 L 408,207 L 407,208 L 406,208 L 405,209 L 404,209 L 403,210 L 402,210 L 401,211 L 400,211 L 398,213 L 397,213 L 396,214 L 395,214 L 393,216 L 392,216 L 391,217 L 390,217 L 388,219 L 387,219 L 384,222 L 383,222 L 378,227 L 377,227 L 372,232 L 372,233 L 368,237 L 368,238 L 366,240 L 366,241 L 364,243 L 364,244 L 363,245 L 363,246 L 362,247 L 362,249 L 361,250 L 361,253 L 360,254 L 360,264 L 361,265 L 361,267 L 363,269 L 363,270 L 367,274 L 368,274 L 370,276 L 371,276 L 372,277 L 373,277 L 374,278 L 375,278 L 376,279 L 377,279 L 378,280 L 380,280 L 381,281 L 382,281 L 383,282 L 385,282 L 386,283 L 387,283 L 388,284 L 388,285 L 386,287 L 385,287 L 384,288 L 383,288 L 381,290 L 380,290 L 378,292 L 377,292 L 376,293 L 375,293 L 373,295 L 372,295 L 371,296 L 370,296 L 369,297 L 368,297 L 367,298 L 366,298 L 365,299 L 363,299 L 362,300 L 361,300 L 360,301 L 357,301 L 356,302 L 354,302 L 353,303 L 349,303 L 348,304 L 331,304 L 330,303 L 327,303 L 326,302 L 324,302 L 323,301 L 321,301 L 320,300 L 319,300 L 318,299 L 317,299 L 316,298 L 315,298 L 313,296 L 312,296 L 310,294 L 309,294 L 303,288 L 303,287 L 300,284 L 300,283 L 298,281 L 298,280 L 297,279 L 297,278 L 296,277 L 296,276 L 295,275 L 295,273 L 294,272 L 294,270 L 293,269 L 293,266 L 292,265 L 292,259 L 291,258 L 291,252 L 292,251 L 292,244 L 293,243 L 293,240 L 294,239 L 294,237 L 295,236 L 295,235 L 296,234 L 296,232 L 297,231 L 297,230 L 298,229 L 298,228 L 300,226 L 300,225 L 301,224 L 301,223 L 304,220 L 304,219 L 309,214 L 309,213 L 314,208 L 315,208 L 321,202 L 322,202 L 325,199 L 326,199 L 328,197 L 329,197 L 331,195 L 332,195 L 334,193 L 335,193 L 337,191 L 338,191 L 339,190 L 340,190 L 341,189 L 342,189 L 343,188 L 344,188 L 346,186 L 347,186 L 348,185 L 349,185 L 350,184 L 351,184 L 352,183 L 354,183 L 355,182 L 356,182 L 357,181 L 358,181 L 359,180 L 360,180 L 361,179 L 363,179 L 364,178 L 365,178 L 366,177 L 367,177 L 368,176 L 370,176 L 371,175 L 373,175 L 374,174 L 375,174 L 376,173 L 378,173 L 379,172 L 381,172 L 382,171 L 384,171 L 385,170 L 387,170 L 388,169 L 390,169 L 391,168 L 393,168 L 394,167 L 396,167 L 397,166 L 400,166 L 401,165 L 403,165 L 404,164 L 407,164 L 408,163 L 411,163 L 412,162 L 415,162 L 416,161 L 419,161 L 420,160 L 424,160 L 425,159 L 428,159 L 429,158 L 433,158 L 434,157 L 438,157 L 439,156 L 443,156 L 444,155 L 449,155 L 450,154 L 455,154 L 456,153 L 462,153 L 463,152 L 469,152 L 470,151 L 478,151 L 479,150 L 487,150 L 488,149 L 499,149 L 500,148 L 517,148 L 518,147 L 524,147 L 522,145 L 522,144 L 517,139 L 517,138 L 508,129 L 508,128 L 501,121 L 500,121 L 491,112 L 490,112 L 485,107 L 484,107 L 481,104 L 480,104 L 477,101 L 476,101 L 473,98 L 472,98 L 470,96 L 469,96 L 467,94 L 466,94 L 464,92 L 463,92 L 461,90 L 460,90 L 459,89 L 458,89 L 456,87 L 455,87 L 454,86 L 453,86 L 452,85 L 451,85 L 450,84 L 449,84 L 447,82 L 446,82 L 445,81 L 444,81 L 443,80 L 442,80 L 441,79 L 440,79 L 439,78 L 438,78 L 437,77 L 436,77 L 435,76 L 433,76 L 432,75 L 431,75 L 430,74 L 429,74 L 428,73 L 426,73 L 425,72 L 424,72 L 423,71 L 421,71 L 420,70 L 419,70 L 418,69 L 416,69 L 415,68 L 413,68 L 412,67 L 410,67 L 409,66 L 407,66 L 406,65 L 404,65 L 403,64 L 400,64 L 399,63 L 397,63 L 396,62 L 393,62 L 392,61 L 388,61 L 387,60 L 384,60 L 383,59 L 379,59 L 378,58 L 373,58 L 372,57 L 366,57 L 365,56 L 356,56 L 355,55 Z" fill="black"/>
    <path d="M 0,0 L 0,482 L 1,483 L 3,483 L 4,484 L 6,484 L 7,485 L 9,485 L 10,486 L 12,486 L 13,487 L 15,487 L 16,488 L 19,488 L 20,489 L 22,489 L 23,490 L 26,490 L 27,491 L 30,491 L 31,492 L 35,492 L 36,493 L 41,493 L 42,494 L 47,494 L 48,495 L 55,495 L 56,496 L 67,496 L 68,497 L 94,497 L 95,496 L 107,496 L 108,495 L 115,495 L 116,494 L 121,494 L 122,493 L 124,493 L 125,494 L 127,494 L 128,493 L 132,493 L 133,492 L 136,492 L 137,491 L 141,491 L 142,490 L 145,490 L 146,489 L 149,489 L 150,488 L 152,488 L 153,487 L 155,487 L 156,486 L 158,486 L 143,471 L 143,470 L 135,462 L 135,461 L 131,457 L 131,456 L 127,452 L 127,451 L 124,448 L 124,447 L 122,445 L 122,444 L 119,441 L 119,440 L 117,438 L 117,437 L 116,436 L 116,435 L 114,433 L 114,432 L 112,430 L 112,429 L 111,428 L 111,427 L 109,425 L 109,424 L 108,423 L 108,422 L 107,421 L 107,420 L 105,418 L 105,417 L 104,416 L 104,415 L 103,414 L 103,413 L 102,412 L 102,411 L 101,410 L 101,409 L 100,408 L 100,407 L 99,406 L 99,405 L 98,404 L 98,403 L 97,402 L 97,400 L 96,399 L 96,398 L 95,397 L 95,396 L 94,395 L 94,393 L 93,392 L 93,391 L 92,390 L 92,388 L 91,387 L 91,386 L 90,385 L 90,383 L 89,382 L 89,380 L 88,379 L 88,377 L 87,376 L 87,374 L 86,373 L 86,371 L 85,370 L 85,367 L 84,366 L 84,364 L 83,363 L 83,360 L 82,359 L 82,356 L 81,355 L 81,352 L 80,351 L 80,347 L 79,346 L 79,342 L 78,341 L 78,336 L 77,335 L 77,329 L 76,328 L 76,320 L 75,319 L 75,305 L 74,304 L 74,287 L 75,286 L 75,271 L 76,270 L 76,262 L 77,261 L 77,255 L 78,254 L 78,250 L 79,249 L 79,244 L 80,243 L 80,240 L 81,239 L 81,235 L 82,234 L 82,231 L 83,230 L 83,227 L 84,226 L 84,224 L 85,223 L 85,221 L 86,220 L 86,217 L 87,216 L 87,214 L 88,213 L 88,211 L 89,210 L 89,208 L 90,207 L 90,206 L 91,205 L 91,203 L 92,202 L 92,200 L 93,199 L 93,198 L 94,197 L 94,196 L 95,195 L 95,193 L 96,192 L 96,191 L 97,190 L 97,189 L 98,188 L 98,187 L 99,186 L 99,184 L 100,183 L 100,182 L 101,181 L 101,180 L 102,179 L 102,178 L 103,177 L 103,176 L 105,174 L 105,173 L 106,172 L 106,171 L 107,170 L 107,169 L 108,168 L 108,167 L 110,165 L 110,164 L 111,163 L 111,162 L 113,160 L 113,159 L 114,158 L 114,157 L 116,155 L 116,154 L 118,152 L 118,151 L 120,149 L 120,148 L 122,146 L 122,145 L 125,142 L 125,141 L 128,138 L 128,137 L 132,133 L 132,132 L 137,127 L 137,126 L 146,117 L 146,116 L 155,107 L 156,107 L 165,98 L 166,98 L 171,93 L 172,93 L 176,89 L 177,89 L 180,86 L 181,86 L 184,83 L 185,83 L 187,81 L 188,81 L 190,79 L 191,79 L 193,77 L 194,77 L 196,75 L 197,75 L 198,74 L 199,74 L 201,72 L 202,72 L 203,71 L 204,71 L 206,69 L 207,69 L 208,68 L 209,68 L 210,67 L 211,67 L 212,66 L 213,66 L 214,65 L 215,65 L 217,63 L 218,63 L 219,62 L 221,62 L 222,61 L 223,61 L 224,60 L 225,60 L 226,59 L 227,59 L 228,58 L 229,58 L 230,57 L 231,57 L 232,56 L 234,56 L 235,55 L 236,55 L 237,54 L 239,54 L 240,53 L 241,53 L 242,52 L 244,52 L 245,51 L 247,51 L 248,50 L 250,50 L 251,49 L 253,49 L 254,48 L 256,48 L 257,47 L 259,47 L 260,46 L 262,46 L 263,45 L 266,45 L 267,44 L 270,44 L 271,43 L 274,43 L 275,42 L 278,42 L 279,41 L 283,41 L 284,40 L 288,40 L 289,39 L 294,39 L 295,38 L 301,38 L 302,37 L 311,37 L 312,36 L 329,36 L 330,35 L 337,35 L 338,36 L 356,36 L 357,37 L 366,37 L 367,38 L 373,38 L 374,39 L 379,39 L 380,40 L 384,40 L 385,41 L 389,41 L 390,42 L 393,42 L 394,43 L 397,43 L 398,44 L 401,44 L 402,45 L 405,45 L 406,46 L 408,46 L 409,47 L 411,47 L 412,48 L 414,48 L 415,49 L 417,49 L 418,50 L 420,50 L 421,51 L 423,51 L 424,52 L 426,52 L 427,53 L 428,53 L 429,54 L 431,54 L 432,55 L 433,55 L 434,56 L 436,56 L 437,57 L 438,57 L 439,58 L 440,58 L 441,59 L 442,59 L 443,60 L 444,60 L 445,61 L 446,61 L 447,62 L 449,62 L 451,64 L 452,64 L 453,65 L 454,65 L 455,66 L 456,66 L 457,67 L 458,67 L 459,68 L 460,68 L 461,69 L 462,69 L 464,71 L 465,71 L 466,72 L 467,72 L 469,74 L 470,74 L 471,75 L 472,75 L 474,77 L 475,77 L 477,79 L 478,79 L 480,81 L 481,81 L 484,84 L 485,84 L 487,86 L 488,86 L 491,89 L 492,89 L 496,93 L 497,93 L 502,98 L 503,98 L 513,108 L 514,108 L 522,116 L 522,117 L 531,126 L 531,127 L 536,132 L 536,133 L 540,137 L 540,138 L 543,141 L 543,142 L 546,145 L 546,146 L 547,147 L 555,147 L 556,148 L 567,148 L 568,149 L 573,149 L 574,150 L 578,150 L 579,151 L 581,151 L 582,152 L 584,152 L 585,153 L 586,152 L 587,153 L 589,153 L 590,154 L 591,154 L 593,156 L 594,156 L 597,159 L 598,159 L 603,164 L 603,165 L 606,168 L 606,169 L 608,171 L 608,173 L 607,174 L 606,174 L 600,180 L 598,180 L 594,184 L 593,184 L 576,201 L 576,202 L 577,203 L 577,205 L 578,206 L 578,207 L 579,208 L 579,210 L 580,211 L 580,213 L 581,214 L 581,216 L 582,217 L 582,220 L 583,221 L 583,223 L 584,224 L 584,227 L 585,228 L 585,230 L 586,231 L 586,234 L 587,235 L 587,239 L 588,240 L 588,243 L 589,244 L 589,249 L 590,250 L 590,255 L 591,256 L 591,258 L 592,258 L 600,250 L 601,250 L 607,244 L 608,244 L 613,239 L 614,239 L 617,236 L 617,235 L 621,231 L 622,231 L 626,227 L 627,227 L 631,223 L 632,223 L 635,220 L 636,220 L 640,216 L 641,216 L 644,213 L 645,213 L 648,210 L 649,210 L 651,208 L 652,208 L 655,205 L 656,205 L 659,202 L 660,202 L 662,200 L 663,200 L 665,198 L 666,198 L 669,195 L 670,195 L 672,193 L 673,193 L 675,191 L 676,191 L 678,189 L 679,189 L 681,187 L 682,187 L 684,185 L 685,185 L 687,183 L 688,183 L 689,182 L 690,182 L 692,180 L 693,180 L 695,178 L 696,178 L 698,176 L 699,176 L 700,175 L 701,175 L 703,173 L 704,173 L 705,172 L 706,172 L 708,170 L 709,170 L 710,169 L 711,169 L 713,167 L 714,167 L 715,166 L 716,166 L 718,164 L 719,164 L 720,163 L 721,163 L 722,162 L 723,162 L 725,160 L 726,160 L 727,159 L 728,159 L 729,158 L 730,158 L 731,157 L 732,157 L 734,155 L 735,155 L 736,154 L 737,154 L 738,153 L 739,153 L 740,152 L 741,152 L 742,151 L 743,151 L 744,150 L 745,150 L 746,149 L 747,149 L 749,147 L 750,147 L 751,146 L 782,146 L 782,0 Z" fill="black"/>
</svg>